<?xml version="1.0" encoding="utf-8"?>
<!-- Generator: Adobe Illustrator 21.0.0, SVG Export Plug-In . SVG Version: 6.00 Build 0)  -->
<svg version="1.1" id="Capa_1" xmlns="http://www.w3.org/2000/svg" xmlns:xlink="http://www.w3.org/1999/xlink" x="0px" y="0px"
	 viewBox="0 0 512 512" style="enable-background:new 0 0 512 512;" xml:space="preserve">
<style type="text/css">
	.st0{fill:url(#SVGID_1_);}
	.st1{fill:url(#SVGID_2_);}
</style>
<g>
	<linearGradient id="SVGID_1_" gradientUnits="userSpaceOnUse" x1="0" y1="256" x2="512" y2="256">
		<stop  offset="0" style="stop-color:#0067CD"/>
		<stop  offset="1" style="stop-color:#4EBAF9"/>
	</linearGradient>
	<path class="st0" d="M512,435.8c0-0.1,0-0.2,0-0.3c0-0.3,0-0.5-0.1-0.8c0-0.1,0-0.1,0-0.2c-0.1-0.3-0.1-0.7-0.3-1c0,0,0,0,0,0
		c-0.1-0.3-0.2-0.6-0.4-0.9c0,0,0-0.1-0.1-0.1c-0.2-0.3-0.3-0.7-0.6-1l-21.3-32c0,0,0,0,0,0L468,367.6c0-0.1-0.1-0.1-0.1-0.2
		l-37.3-55.9c-0.3-0.4-0.6-0.9-1-1.2c-0.1-0.1-0.2-0.2-0.3-0.2c-0.1-0.1-0.2-0.2-0.3-0.3c-0.1-0.1-0.2-0.2-0.3-0.3
		c-0.1-0.1-0.2-0.1-0.3-0.2c-0.1-0.1-0.2-0.1-0.3-0.2c-0.1-0.1-0.2-0.1-0.3-0.2c-0.1-0.1-0.2-0.1-0.3-0.2c-0.1-0.1-0.3-0.1-0.4-0.2
		c-0.1,0-0.2-0.1-0.3-0.1c-0.1,0-0.3-0.1-0.4-0.1c-0.1,0-0.3-0.1-0.4-0.1c-0.1,0-0.2-0.1-0.3-0.1c-0.5-0.1-1.1-0.2-1.6-0.2h-98.9
		C355,268.3,384,216.3,384,164c0-70.6-57.4-128-128-128S128,93.4,128,164c0,52.3,29,104.3,58.9,144H88c-2.8,0-5.3,1.5-6.7,3.7
		l-21.2,31.7c-0.1,0.1-0.1,0.2-0.2,0.3L1.4,431.4c-0.2,0.3-0.4,0.7-0.6,1.1c0,0,0,0.1,0,0.1c-0.3,0.6-0.5,1.3-0.6,2c0,0,0,0.1,0,0.1
		c0,0.3-0.1,0.5-0.1,0.8c0,0.1,0,0.2,0,0.3c0,0.1,0,0.2,0,0.2v32c0,4.4,3.6,8,8,8h496c4.4,0,8-3.6,8-8v-32
		C512,435.9,512,435.8,512,435.8z M438.3,428l-7.6-16h47.8l10.7,16H438.3z M407.7,364l-19.1-40h31l26.7,40H407.7z M256,52
		c61.8,0,112,50.2,112,112c0,85.9-89.2,175.6-112,197.1c-2.3-2.2-5.3-5-8.8-8.5c-0.8-1.7-2.1-3-3.8-3.8
		C210.6,315.3,144,238.2,144,164C144,102.2,194.2,52,256,52z M333.4,364l6.9,24H171.7l6.9-24h57.3c8.3,8.2,13.9,13.1,14.9,14
		c1.5,1.3,3.4,2,5.3,2s3.8-0.7,5.3-2c1-0.9,6.6-5.8,14.9-14H333.4z M220.4,348h-47.9c0,0-0.1,0-0.1,0c-0.1,0-0.1,0-0.2,0
		c-3.6,0.1-6.6,2.6-7.5,6l-11.3,39.5c0,0.1,0,0.1-0.1,0.2l0,0c0,0,0,0,0,0c-0.1,0.2-0.1,0.5-0.2,0.7c0,0.1,0,0.1,0,0.2
		c0,0.2-0.1,0.4-0.1,0.6c0,0.1,0,0.2,0,0.3c0,0.1,0,0.2,0,0.3c0,0,0,0.1,0,0.1c0,0.1,0,0.2,0,0.4c0,0.1,0,0.3,0,0.4
		c0,0.1,0,0.2,0,0.3c0,0.2,0.1,0.4,0.1,0.5c0,0,0,0,0,0.1c0.6,2.8,2.8,5.1,5.6,5.9c0,0,0,0,0,0c0,0,0,0,0,0c0.3,0.1,0.6,0.2,1,0.2
		c0.1,0,0.1,0,0.2,0c0.3,0,0.7,0.1,1,0.1h0c0,0,0,0,0,0c0,0,0,0,0,0h189.9c0.3,0,0.7,0,1-0.1c0.1,0,0.1,0,0.2,0
		c0.3-0.1,0.7-0.1,1-0.2c0,0,0,0,0,0c0,0,0,0,0,0c0.5-0.1,1-0.3,1.5-0.6c0,0,0,0,0,0c0.2-0.1,0.4-0.2,0.6-0.4c0,0,0,0,0,0
		c0.2-0.1,0.4-0.3,0.6-0.4c0,0,0,0,0.1,0c0.2-0.2,0.4-0.3,0.5-0.5c0,0,0,0,0,0c0.9-0.9,1.6-2,2-3.2c0,0,0,0,0,0
		c0.1-0.2,0.1-0.4,0.2-0.6c0-0.1,0-0.1,0-0.2c0-0.1,0.1-0.3,0.1-0.5c0-0.1,0-0.2,0.1-0.3c0-0.1,0-0.3,0-0.4c0-0.1,0-0.3,0-0.4
		c0,0,0-0.1,0-0.1c0-0.1,0-0.2,0-0.3c0-0.1,0-0.2,0-0.4c0-0.2,0-0.4-0.1-0.6c0-0.1,0-0.1,0-0.2c0-0.2-0.1-0.5-0.2-0.7c0,0,0,0,0,0
		l0,0c0-0.1,0-0.1-0.1-0.2L347.2,354c-0.8-3.4-3.8-5.9-7.4-6c-0.1,0-0.1,0-0.2,0c0,0-0.1,0-0.1,0h-47.9c6.5-7,13.6-15.1,21-24H371
		l24.5,51.4c0,0,0,0.1,0.1,0.1c1.3,2.7,4,4.5,7.2,4.5h54.4l10.7,16h-49.3c-1.3-0.1-2.6,0.2-3.9,0.8c-3.4,1.6-5.1,5.3-4.4,8.8
		c0,0,0,0,0,0c0,0.2,0.1,0.4,0.2,0.6c0,0.1,0,0.1,0.1,0.2c0.1,0.2,0.1,0.3,0.2,0.5c0,0.1,0.1,0.2,0.1,0.3c0,0.1,0,0.1,0.1,0.2
		l9.8,20.6H91.5l36.3-76.1c0.6-1.1,1-2.5,1-3.9c0-1.8-0.6-3.4-1.5-4.7c0,0,0,0,0,0c-0.1-0.2-0.3-0.4-0.5-0.6c0,0,0,0-0.1-0.1
		c-0.1-0.2-0.3-0.3-0.5-0.5c0,0-0.1-0.1-0.1-0.1c-0.2-0.1-0.3-0.3-0.5-0.4c0,0-0.1-0.1-0.1-0.1c-0.2-0.1-0.4-0.3-0.5-0.4
		c0,0-0.1,0-0.1-0.1c-0.2-0.1-0.4-0.2-0.6-0.3c0,0,0,0-0.1,0c0,0,0,0-0.1,0c-0.2-0.1-0.4-0.2-0.6-0.3c-0.1,0-0.1,0-0.2-0.1
		c-0.2-0.1-0.3-0.1-0.5-0.2c-0.1,0-0.2-0.1-0.3-0.1c-0.1,0-0.2-0.1-0.4-0.1c-0.2,0-0.3-0.1-0.5-0.1c-0.1,0-0.1,0-0.2,0
		c-0.2,0-0.5,0-0.7,0c0,0,0,0,0,0H81.6l10.7-16h107.1C206.8,332.9,213.9,341,220.4,348z M71,356h37.1l-34.3,72H22.9L71,356z
		 M496,460H16v-16h480V460z"/>
	<linearGradient id="SVGID_2_" gradientUnits="userSpaceOnUse" x1="192.0048" y1="172" x2="320.0066" y2="172">
		<stop  offset="0" style="stop-color:#0067CD"/>
		<stop  offset="1" style="stop-color:#4EBAF9"/>
	</linearGradient>
	<path class="st1" d="M304,228c4.4,0,8-3.6,8-8s-3.6-8-8-8v-43.9l3.4,2.4c1.4,1,3,1.5,4.6,1.5c2.5,0,5-1.2,6.5-3.4
		c2.6-3.6,1.7-8.6-1.9-11.2l-56-40c-0.1-0.1-0.2-0.1-0.3-0.2c-0.1,0-0.1-0.1-0.2-0.1c-0.2-0.1-0.3-0.2-0.5-0.3
		c-0.1,0-0.1-0.1-0.2-0.1c-0.2-0.1-0.4-0.2-0.5-0.2c-0.1,0-0.1,0-0.2-0.1c-0.2-0.1-0.4-0.1-0.5-0.2c-0.1,0-0.1,0-0.2-0.1
		c-0.2,0-0.3-0.1-0.5-0.1c-0.1,0-0.2,0-0.3-0.1c-0.1,0-0.3,0-0.4,0c-0.1,0-0.3,0-0.4,0c-0.1,0-0.2,0-0.3,0c-0.2,0-0.3,0-0.5,0
		c-0.1,0-0.1,0-0.2,0c-0.2,0-0.4,0-0.6,0.1c0,0-0.1,0-0.1,0c-0.2,0-0.4,0.1-0.7,0.1c0,0,0,0-0.1,0c-0.2,0.1-0.4,0.1-0.7,0.2
		c0,0,0,0-0.1,0c-0.2,0.1-0.4,0.2-0.6,0.3c0,0-0.1,0-0.1,0.1c-0.2,0.1-0.4,0.2-0.6,0.3c0,0-0.1,0.1-0.1,0.1
		c-0.1,0.1-0.2,0.2-0.4,0.2L224,137v-13c0-4.4-3.6-8-8-8s-8,3.6-8,8v24.5l-12.6,9c-3.6,2.6-4.4,7.6-1.9,11.2c1.6,2.2,4,3.4,6.5,3.4
		c1.6,0,3.2-0.5,4.6-1.5l3.3-2.4V212c-4.4,0-8,3.6-8,8s3.6,8,8,8H304z M224,156.7l32-22.9l32,22.9V212h-24v-16c0-4.4-3.6-8-8-8
		s-8,3.6-8,8v16h-24V156.7z"/>
</g>
</svg>
