<?xml version="1.0" encoding="utf-8"?>
<!-- Generator: Adobe Illustrator 21.0.0, SVG Export Plug-In . SVG Version: 6.00 Build 0)  -->
<svg version="1.1" id="Capa_1" xmlns="http://www.w3.org/2000/svg" xmlns:xlink="http://www.w3.org/1999/xlink" x="0px" y="0px"
	 viewBox="0 0 512 512" style="enable-background:new 0 0 512 512;" xml:space="preserve">
<style type="text/css">
	.st0{fill:url(#SVGID_1_);}
	.st1{fill:url(#SVGID_2_);}
	.st2{fill:url(#SVGID_3_);}
</style>
<linearGradient id="SVGID_1_" gradientUnits="userSpaceOnUse" x1="0" y1="256" x2="512" y2="256">
	<stop  offset="0" style="stop-color:#0067CD"/>
	<stop  offset="1" style="stop-color:#4EBAF9"/>
</linearGradient>
<path class="st0" d="M373.4,0H138.6C62.2,0,0,62.2,0,138.6v234.8C0,449.8,62.2,512,138.6,512h234.8c76.4,0,138.6-62.2,138.6-138.6
	V138.6C512,62.2,449.8,0,373.4,0z M482,373.4c0,59.9-48.7,108.6-108.6,108.6H138.6C78.7,482,30,433.3,30,373.4V138.6
	C30,78.7,78.7,30,138.6,30h234.8C433.3,30,482,78.7,482,138.6V373.4z"/>
<linearGradient id="SVGID_2_" gradientUnits="userSpaceOnUse" x1="116.0039" y1="256" x2="395.9961" y2="256">
	<stop  offset="0" style="stop-color:#0067CD"/>
	<stop  offset="1" style="stop-color:#4EBAF9"/>
</linearGradient>
<path class="st1" d="M256,116c-77.2,0-140,62.8-140,140s62.8,140,140,140s140-62.8,140-140S333.2,116,256,116z M256,366
	c-60.6,0-110-49.3-110-110c0-60.6,49.3-110,110-110c60.6,0,110,49.3,110,110C366,316.6,316.6,366,256,366z"/>
<linearGradient id="SVGID_3_" gradientUnits="userSpaceOnUse" x1="357.9766" y1="107.6543" x2="440.7148" y2="107.6543">
	<stop  offset="0" style="stop-color:#0067CD"/>
	<stop  offset="1" style="stop-color:#4EBAF9"/>
</linearGradient>
<path class="st2" d="M399.3,66.3c-22.8,0-41.4,18.6-41.4,41.4c0,22.8,18.6,41.4,41.4,41.4s41.4-18.6,41.4-41.4
	S422.2,66.3,399.3,66.3z M399.3,119c-6.3,0-11.4-5.1-11.4-11.4c0-6.3,5.1-11.4,11.4-11.4c6.3,0,11.4,5.1,11.4,11.4
	C410.7,113.9,405.6,119,399.3,119z"/>
</svg>
