<?xml version="1.0" encoding="utf-8"?>
<!-- Generator: Adobe Illustrator 21.0.0, SVG Export Plug-In . SVG Version: 6.00 Build 0)  -->
<svg version="1.1" id="Capa_1" xmlns="http://www.w3.org/2000/svg" xmlns:xlink="http://www.w3.org/1999/xlink" x="0px" y="0px"
	 viewBox="0 0 512 512" style="enable-background:new 0 0 512 512;" xml:space="preserve">
<style type="text/css">
	.st0{fill:url(#SVGID_1_);}
	.st1{fill:url(#SVGID_2_);}
	.st2{fill:url(#SVGID_3_);}
	.st3{fill:url(#SVGID_4_);}
</style>
<linearGradient id="SVGID_1_" gradientUnits="userSpaceOnUse" x1="90" y1="310" x2="160" y2="310">
	<stop  offset="0" style="stop-color:#0067CD"/>
	<stop  offset="1" style="stop-color:#4EBAF9"/>
</linearGradient>
<rect x="90" y="197" class="st0" width="70" height="226"/>
<linearGradient id="SVGID_2_" gradientUnits="userSpaceOnUse" x1="85" y1="125" x2="167" y2="125">
	<stop  offset="0" style="stop-color:#0067CD"/>
	<stop  offset="1" style="stop-color:#4EBAF9"/>
</linearGradient>
<path class="st1" d="M167,125c0-22.6-18.4-41-41-41c-22.7,0-41,18.4-41,41s18.3,41,41,41C148.6,166,167,147.6,167,125z"/>
<linearGradient id="SVGID_3_" gradientUnits="userSpaceOnUse" x1="204" y1="308" x2="422" y2="308">
	<stop  offset="0" style="stop-color:#0067CD"/>
	<stop  offset="1" style="stop-color:#4EBAF9"/>
</linearGradient>
<path class="st2" d="M422,298.7C422,238,409.2,193,338.3,193c-34.1,0-56.9,17-66.2,34.7H272V197h-68v226h68V310.8
	c0-29.4,7.5-57.9,43.9-57.9c35.9,0,37.1,33.6,37.1,59.7V423h69V298.7z"/>
<linearGradient id="SVGID_4_" gradientUnits="userSpaceOnUse" x1="0" y1="256" x2="512" y2="256">
	<stop  offset="0" style="stop-color:#0067CD"/>
	<stop  offset="1" style="stop-color:#4EBAF9"/>
</linearGradient>
<path class="st3" d="M452,0H60C26.9,0,0,26.9,0,60v392c0,33.1,26.9,60,60,60h392c33.1,0,60-26.9,60-60V60C512,26.9,485.1,0,452,0z
	 M487,465.6c0,11.8-9.6,21.4-21.4,21.4H46.4c-11.8,0-21.4-9.6-21.4-21.4V46.4C25,34.6,34.6,25,46.4,25h419.2
	c11.8,0,21.4,9.6,21.4,21.4V465.6z"/>
</svg>
