<?xml version="1.0" encoding="utf-8"?>
<!-- Generator: Adobe Illustrator 21.0.0, SVG Export Plug-In . SVG Version: 6.00 Build 0)  -->
<svg version="1.1" id="Capa_1" xmlns="http://www.w3.org/2000/svg" xmlns:xlink="http://www.w3.org/1999/xlink" x="0px" y="0px"
	 viewBox="0 0 383 322" style="enable-background:new 0 0 383 322;" xml:space="preserve">
<style type="text/css">
	.st0{fill:#FFFFFF;}
	.st1{fill:url(#SVGID_1_);}
	.st2{fill:url(#SVGID_2_);}
	.st3{fill:url(#SVGID_3_);}
	.st4{fill:url(#SVGID_4_);}
	.st5{fill:none;stroke:url(#SVGID_5_);stroke-width:4;stroke-linecap:round;stroke-linejoin:round;stroke-miterlimit:10;}
	.st6{fill:none;stroke:url(#SVGID_6_);stroke-width:4;stroke-linecap:round;stroke-linejoin:round;stroke-miterlimit:10;}
	.st7{fill:none;stroke:url(#SVGID_7_);stroke-width:4;stroke-linecap:round;stroke-linejoin:round;stroke-miterlimit:10;}
	.st8{fill:none;stroke:url(#SVGID_8_);stroke-width:4;stroke-linecap:round;stroke-linejoin:round;stroke-miterlimit:10;}
	.st9{fill:none;stroke:url(#SVGID_9_);stroke-width:4;stroke-linecap:round;stroke-linejoin:round;stroke-miterlimit:10;}
	.st10{fill:none;stroke:url(#SVGID_10_);stroke-width:4;stroke-linecap:round;stroke-linejoin:round;stroke-miterlimit:10;}
	.st11{fill:none;stroke:url(#SVGID_11_);stroke-width:4;stroke-linecap:round;stroke-linejoin:round;stroke-miterlimit:10;}
	.st12{fill:none;stroke:url(#SVGID_12_);stroke-width:4;stroke-linecap:round;stroke-linejoin:round;stroke-miterlimit:10;}
	.st13{fill:none;stroke:url(#SVGID_13_);stroke-width:4;stroke-linecap:round;stroke-linejoin:round;stroke-miterlimit:10;}
	
		.st14{fill:none;stroke:url(#SVGID_14_);stroke-width:4;stroke-linecap:round;stroke-linejoin:round;stroke-miterlimit:10;stroke-dasharray:0,9;}
	.st15{fill:none;stroke:url(#SVGID_15_);stroke-width:4;stroke-linecap:round;stroke-linejoin:round;stroke-miterlimit:10;}
	
		.st16{fill:none;stroke:url(#SVGID_16_);stroke-width:4;stroke-linecap:round;stroke-linejoin:round;stroke-miterlimit:10;stroke-dasharray:0,8;}
	.st17{fill:none;stroke:url(#SVGID_17_);stroke-width:4;stroke-linecap:round;stroke-linejoin:round;stroke-miterlimit:10;}
	.st18{fill:none;stroke:#6067CD;stroke-width:5;stroke-linecap:round;stroke-linejoin:round;stroke-miterlimit:10;}
	.st19{fill:url(#SVGID_18_);}
	.st20{fill:url(#SVGID_19_);}
	.st21{fill:url(#SVGID_20_);}
	.st22{fill:url(#SVGID_21_);}
	.st23{fill:url(#SVGID_24_);}
	.st24{fill:url(#SVGID_25_);}
	.st25{fill:url(#SVGID_26_);}
	.st26{fill:#FEFDFF;}
	.st27{fill:url(#SVGID_29_);}
	.st28{fill:url(#SVGID_30_);}
	
		.st29{fill:none;stroke:url(#SVGID_31_);stroke-width:4;stroke-linecap:round;stroke-linejoin:round;stroke-miterlimit:10;stroke-dasharray:0,9;}
	.st30{fill:none;stroke:url(#SVGID_32_);stroke-width:4;stroke-linecap:round;stroke-linejoin:round;stroke-miterlimit:10;}
	.st31{fill:url(#SVGID_33_);}
	.st32{fill:url(#SVGID_34_);}
	.st33{fill:url(#SVGID_35_);}
	.st34{fill:url(#SVGID_36_);}
	.st35{fill:none;stroke:#6067CD;stroke-linecap:round;stroke-linejoin:round;stroke-miterlimit:10;}
	.st36{fill:none;stroke:url(#SVGID_37_);stroke-miterlimit:10;}
	.st37{fill:url(#XMLID_374_);}
	.st38{fill:url(#XMLID_377_);}
	.st39{fill:url(#XMLID_379_);}
	.st40{fill:url(#XMLID_381_);}
	.st41{fill:url(#XMLID_385_);}
	.st42{fill:url(#XMLID_386_);}
	.st43{fill:url(#XMLID_387_);}
	.st44{fill:url(#XMLID_388_);}
	.st45{fill:url(#XMLID_389_);}
	.st46{fill:url(#XMLID_390_);}
	.st47{fill:url(#XMLID_391_);}
	.st48{fill:url(#XMLID_392_);}
	.st49{fill:#463396;}
	.st50{fill:#EADFEC;}
	.st51{fill:url(#XMLID_393_);}
	.st52{fill:url(#XMLID_394_);}
	.st53{fill:url(#XMLID_395_);}
	.st54{fill:url(#XMLID_396_);}
	.st55{fill:url(#XMLID_397_);}
	.st56{fill:url(#XMLID_398_);}
	.st57{fill:url(#XMLID_399_);}
	.st58{fill:url(#XMLID_400_);}
	.st59{fill:url(#XMLID_401_);}
	.st60{fill:url(#XMLID_402_);}
	.st61{fill:url(#XMLID_403_);}
	.st62{fill:url(#XMLID_404_);}
	.st63{fill:url(#XMLID_405_);}
	.st64{fill:url(#XMLID_406_);}
	.st65{fill:url(#XMLID_407_);}
	.st66{fill:url(#XMLID_408_);}
	.st67{fill:url(#XMLID_409_);}
	.st68{fill:url(#XMLID_410_);}
	.st69{fill:url(#XMLID_411_);}
	.st70{fill:url(#XMLID_412_);}
	.st71{fill:url(#XMLID_413_);}
	.st72{fill:url(#XMLID_414_);}
	.st73{fill:url(#XMLID_415_);}
	.st74{fill:url(#XMLID_416_);}
	.st75{fill:url(#XMLID_417_);}
	.st76{fill:url(#XMLID_418_);}
	.st77{fill:url(#XMLID_419_);}
	.st78{fill:url(#XMLID_420_);}
	.st79{fill:url(#XMLID_421_);}
	.st80{fill:url(#XMLID_422_);}
	.st81{fill:url(#XMLID_423_);}
	.st82{fill:url(#XMLID_424_);}
	.st83{fill:url(#XMLID_425_);}
	.st84{fill:url(#XMLID_426_);}
	.st85{fill:url(#XMLID_427_);}
	.st86{fill:url(#XMLID_428_);}
	.st87{fill:url(#XMLID_429_);}
	.st88{fill:url(#XMLID_430_);}
	.st89{fill:url(#XMLID_431_);}
	.st90{fill:url(#XMLID_602_);}
	.st91{fill:url(#XMLID_603_);}
	.st92{fill:url(#XMLID_604_);}
	.st93{fill:url(#XMLID_605_);}
	.st94{fill:url(#XMLID_606_);}
	.st95{fill:url(#XMLID_607_);}
	.st96{fill:url(#XMLID_608_);}
	.st97{fill:url(#XMLID_609_);}
	.st98{fill:url(#XMLID_610_);}
	.st99{fill:url(#XMLID_611_);}
	.st100{fill:url(#XMLID_612_);}
	.st101{fill:url(#XMLID_613_);}
	.st102{fill:url(#XMLID_614_);}
	.st103{fill:url(#XMLID_615_);}
	.st104{fill:url(#XMLID_616_);}
	.st105{fill:url(#XMLID_621_);}
	.st106{fill:url(#XMLID_622_);}
	.st107{fill:url(#XMLID_623_);}
	.st108{fill:url(#XMLID_624_);}
	.st109{fill:url(#XMLID_625_);}
	.st110{fill:url(#XMLID_626_);}
	.st111{fill:url(#XMLID_627_);}
	.st112{fill:url(#XMLID_628_);}
	.st113{fill:url(#XMLID_629_);}
	.st114{fill:url(#XMLID_630_);}
	.st115{fill:url(#XMLID_631_);}
	.st116{fill:url(#XMLID_632_);}
	.st117{fill:url(#XMLID_633_);}
	.st118{fill:url(#XMLID_634_);}
	.st119{fill:url(#XMLID_635_);}
	.st120{fill:url(#XMLID_636_);}
	.st121{fill:url(#XMLID_637_);}
	.st122{fill:url(#XMLID_638_);}
	.st123{fill:url(#XMLID_639_);}
	.st124{fill:url(#XMLID_640_);}
	.st125{fill:url(#XMLID_641_);}
	.st126{fill:url(#XMLID_642_);}
	.st127{fill:url(#XMLID_643_);}
	.st128{fill:url(#XMLID_644_);}
	.st129{fill:url(#XMLID_645_);}
	.st130{fill:url(#XMLID_646_);}
	.st131{fill:url(#XMLID_647_);}
	.st132{fill:url(#XMLID_648_);}
	.st133{fill:url(#XMLID_649_);}
	.st134{fill:url(#XMLID_650_);}
	.st135{fill:url(#XMLID_651_);}
	.st136{fill:url(#XMLID_653_);}
	.st137{fill:url(#XMLID_656_);}
	.st138{fill:url(#XMLID_657_);}
	.st139{fill:url(#XMLID_658_);}
	.st140{fill:url(#XMLID_659_);}
	.st141{fill:url(#XMLID_660_);}
	.st142{fill:url(#XMLID_662_);}
	.st143{fill:url(#XMLID_664_);}
	.st144{fill:url(#XMLID_666_);}
	.st145{fill:url(#XMLID_669_);}
	.st146{fill:url(#XMLID_671_);}
	.st147{fill:url(#XMLID_677_);}
	.st148{fill:url(#XMLID_679_);}
	.st149{fill:url(#XMLID_680_);}
	.st150{fill:url(#XMLID_681_);}
	.st151{fill:url(#XMLID_682_);}
	.st152{fill:url(#XMLID_697_);}
	.st153{fill:url(#XMLID_699_);}
	.st154{fill:url(#XMLID_702_);}
	.st155{fill:url(#XMLID_704_);}
	.st156{fill:url(#XMLID_707_);}
	.st157{fill:url(#XMLID_709_);}
	.st158{fill:url(#XMLID_711_);}
	.st159{fill:url(#XMLID_713_);}
	.st160{fill:url(#XMLID_716_);}
	.st161{fill:url(#XMLID_718_);}
	.st162{fill:url(#XMLID_725_);}
	.st163{fill:url(#XMLID_729_);}
	.st164{fill:url(#XMLID_730_);}
	.st165{fill:url(#XMLID_738_);}
	.st166{fill:#1A00BC;}
	.st167{fill:#4981CE;}
	.st168{fill:url(#XMLID_740_);}
	.st169{fill:url(#XMLID_743_);}
	.st170{fill:url(#XMLID_745_);}
	.st171{fill:url(#XMLID_748_);}
	.st172{fill:url(#XMLID_750_);}
	.st173{fill:url(#XMLID_752_);}
	.st174{fill:url(#XMLID_754_);}
	.st175{fill:url(#XMLID_757_);}
	.st176{fill:url(#XMLID_759_);}
	.st177{fill:url(#XMLID_806_);}
	.st178{fill:url(#XMLID_807_);}
	.st179{fill:url(#XMLID_808_);}
	.st180{fill:url(#XMLID_809_);}
	.st181{fill:url(#XMLID_810_);}
	.st182{fill:url(#XMLID_811_);}
	.st183{fill:url(#XMLID_812_);}
	.st184{fill:url(#XMLID_813_);}
	.st185{fill:url(#XMLID_814_);}
	.st186{fill:url(#XMLID_815_);}
	.st187{fill:url(#XMLID_816_);}
	.st188{fill:url(#XMLID_817_);}
	.st189{fill:url(#XMLID_818_);}
	.st190{fill:url(#XMLID_819_);}
	.st191{fill:url(#XMLID_820_);}
	.st192{fill:url(#XMLID_821_);}
	.st193{fill:url(#XMLID_822_);}
	.st194{fill:url(#XMLID_823_);}
	.st195{fill:url(#XMLID_824_);}
	.st196{fill:#4EBAF9;}
	.st197{fill:url(#XMLID_825_);}
	.st198{fill:url(#XMLID_826_);}
	.st199{fill:url(#XMLID_827_);}
	.st200{fill:url(#XMLID_828_);}
	.st201{fill:url(#XMLID_829_);}
	.st202{fill:url(#XMLID_830_);}
	.st203{fill:url(#XMLID_831_);}
	.st204{fill:url(#XMLID_832_);}
	.st205{fill:url(#XMLID_833_);}
	.st206{fill:url(#XMLID_834_);}
	.st207{fill:url(#XMLID_835_);}
	.st208{fill:url(#XMLID_836_);}
	.st209{fill:url(#XMLID_837_);}
	.st210{fill:url(#XMLID_838_);}
	.st211{fill:url(#XMLID_839_);}
	.st212{fill:url(#XMLID_840_);}
	.st213{fill:url(#XMLID_841_);}
	.st214{fill:url(#XMLID_842_);}
	.st215{fill:url(#XMLID_843_);}
	.st216{fill:url(#XMLID_844_);}
	.st217{fill:url(#XMLID_845_);}
	.st218{fill:url(#XMLID_846_);}
	.st219{fill:url(#XMLID_847_);}
	.st220{fill:url(#XMLID_848_);}
	.st221{fill:url(#XMLID_849_);}
	.st222{fill:url(#XMLID_850_);}
	.st223{fill:url(#XMLID_851_);}
	.st224{fill:url(#XMLID_852_);}
	.st225{fill:url(#XMLID_853_);}
	.st226{fill:url(#XMLID_854_);}
	.st227{fill:url(#XMLID_855_);}
	.st228{fill:url(#XMLID_856_);}
	.st229{fill:url(#XMLID_857_);}
	.st230{fill:url(#XMLID_858_);}
	.st231{fill:url(#XMLID_859_);}
	.st232{fill:url(#XMLID_860_);}
	.st233{fill:url(#XMLID_861_);}
	.st234{fill:url(#XMLID_862_);}
	.st235{fill:url(#XMLID_863_);}
	.st236{fill:url(#XMLID_864_);}
	.st237{fill:url(#XMLID_865_);}
	.st238{fill:url(#XMLID_866_);}
	.st239{fill:url(#XMLID_867_);}
	.st240{fill:url(#XMLID_868_);}
	.st241{fill:url(#XMLID_869_);}
	.st242{fill:url(#XMLID_870_);}
	.st243{fill:url(#XMLID_871_);}
	.st244{fill:url(#XMLID_872_);}
	.st245{fill:url(#XMLID_873_);}
	.st246{fill:url(#XMLID_874_);}
	.st247{fill:url(#XMLID_875_);}
	.st248{fill:url(#XMLID_876_);}
	.st249{fill:url(#XMLID_877_);}
	.st250{fill:url(#XMLID_878_);}
	.st251{fill:url(#XMLID_879_);}
	.st252{fill:url(#XMLID_880_);}
	.st253{fill:url(#XMLID_881_);}
	.st254{fill:url(#XMLID_882_);}
	.st255{fill:url(#XMLID_883_);}
	.st256{fill:url(#XMLID_884_);}
	.st257{fill:url(#XMLID_885_);}
	.st258{fill:url(#XMLID_886_);}
	.st259{fill:url(#XMLID_887_);}
	.st260{fill:url(#XMLID_888_);}
	.st261{fill:url(#XMLID_889_);}
	.st262{fill:url(#XMLID_890_);}
	.st263{fill:url(#XMLID_891_);}
	.st264{fill:url(#XMLID_892_);}
	.st265{fill:url(#XMLID_893_);}
	.st266{fill:url(#XMLID_894_);}
	.st267{fill:url(#XMLID_895_);}
	.st268{fill:url(#XMLID_896_);}
	.st269{fill:url(#XMLID_897_);}
	.st270{fill:url(#XMLID_898_);}
	.st271{fill:url(#XMLID_899_);}
	.st272{fill:url(#XMLID_900_);}
	.st273{fill:url(#XMLID_901_);}
	.st274{fill:url(#XMLID_902_);}
	.st275{fill:url(#XMLID_903_);}
	.st276{fill:url(#XMLID_904_);}
	.st277{fill:url(#XMLID_905_);}
	.st278{fill:url(#XMLID_906_);}
	.st279{fill:url(#XMLID_907_);}
	.st280{fill:url(#XMLID_908_);}
	.st281{fill:url(#XMLID_909_);}
	.st282{fill:url(#XMLID_910_);}
	.st283{fill:url(#XMLID_911_);}
	.st284{fill:url(#XMLID_912_);}
	.st285{fill:url(#XMLID_913_);}
	.st286{fill:url(#XMLID_914_);}
	.st287{fill:url(#XMLID_915_);}
	.st288{fill:url(#XMLID_916_);}
	.st289{fill:url(#XMLID_917_);}
	.st290{fill:url(#XMLID_918_);}
	.st291{fill:url(#XMLID_919_);}
	.st292{fill:url(#XMLID_920_);}
	.st293{fill:url(#XMLID_921_);}
	.st294{fill:url(#XMLID_922_);}
	.st295{fill:url(#XMLID_923_);}
	.st296{fill:url(#XMLID_924_);}
	.st297{fill:url(#XMLID_925_);}
	.st298{fill:url(#XMLID_926_);}
	.st299{fill:url(#XMLID_927_);}
	.st300{fill:url(#XMLID_928_);}
	.st301{fill:url(#XMLID_929_);}
	.st302{fill:url(#XMLID_930_);}
	.st303{fill:url(#XMLID_931_);}
	.st304{fill:url(#XMLID_932_);}
	.st305{fill:url(#XMLID_933_);}
	.st306{fill:url(#XMLID_934_);}
	.st307{fill:url(#XMLID_935_);}
	.st308{fill:url(#XMLID_936_);}
	.st309{fill:url(#XMLID_937_);}
	.st310{fill:url(#XMLID_938_);}
	.st311{fill:url(#XMLID_939_);}
	.st312{fill:url(#XMLID_940_);}
	.st313{fill:url(#XMLID_941_);}
	.st314{fill:url(#XMLID_942_);}
	.st315{fill:url(#XMLID_943_);}
	.st316{fill:url(#XMLID_944_);}
	.st317{fill:url(#XMLID_945_);}
	.st318{fill:url(#XMLID_946_);}
	.st319{fill:url(#XMLID_947_);}
	.st320{fill:url(#XMLID_948_);}
	.st321{fill:url(#XMLID_949_);}
	.st322{fill:url(#XMLID_950_);}
	.st323{fill:url(#XMLID_951_);}
	.st324{fill:url(#XMLID_952_);}
	.st325{fill:url(#XMLID_953_);}
	.st326{fill:url(#XMLID_954_);}
	.st327{fill:url(#XMLID_955_);}
	.st328{fill:url(#XMLID_956_);}
	.st329{fill:url(#XMLID_957_);}
	.st330{fill:url(#XMLID_958_);}
	.st331{fill:url(#XMLID_959_);}
	.st332{fill:url(#XMLID_960_);}
	.st333{fill:url(#XMLID_961_);}
	.st334{fill:url(#XMLID_962_);}
	.st335{fill:url(#XMLID_963_);}
	.st336{fill:url(#XMLID_964_);}
	.st337{fill:url(#XMLID_965_);}
	.st338{fill:url(#XMLID_966_);}
	.st339{fill:url(#XMLID_967_);}
	.st340{fill:url(#XMLID_968_);}
	.st341{fill:url(#XMLID_969_);}
	.st342{fill:url(#XMLID_970_);}
	.st343{fill:url(#XMLID_971_);}
	.st344{fill:url(#XMLID_972_);}
	.st345{fill:url(#XMLID_973_);}
	.st346{fill:url(#XMLID_974_);}
	.st347{fill:url(#XMLID_975_);}
	.st348{fill:url(#XMLID_976_);}
	.st349{fill:url(#XMLID_977_);}
	.st350{fill:url(#XMLID_978_);}
	.st351{fill:url(#XMLID_979_);}
	.st352{fill:none;stroke:#FFFFFF;stroke-width:8;stroke-miterlimit:10;}
	.st353{fill:none;stroke:url(#SVGID_38_);stroke-miterlimit:10;}
	.st354{fill:none;stroke:url(#SVGID_39_);stroke-width:2;stroke-miterlimit:10;}
	.st355{fill:url(#SVGID_40_);stroke:url(#SVGID_41_);stroke-width:2;stroke-miterlimit:10;}
	.st356{fill:none;stroke:url(#SVGID_42_);stroke-width:0.5;stroke-miterlimit:10;}
	.st357{fill:none;stroke:url(#SVGID_43_);stroke-width:0.5;stroke-miterlimit:10;}
	.st358{fill:none;stroke:url(#SVGID_44_);stroke-width:0.5;stroke-miterlimit:10;}
	.st359{fill:none;stroke:url(#SVGID_45_);stroke-width:0.5;stroke-miterlimit:10;}
	.st360{fill:none;stroke:url(#SVGID_46_);stroke-miterlimit:10;}
	.st361{fill:none;stroke:url(#SVGID_47_);stroke-miterlimit:10;}
	.st362{fill:none;stroke:url(#SVGID_48_);stroke-miterlimit:10;}
	.st363{fill:none;stroke:url(#SVGID_49_);stroke-miterlimit:10;}
	.st364{fill:none;stroke:url(#SVGID_50_);stroke-miterlimit:10;}
	.st365{fill:none;stroke:url(#SVGID_51_);stroke-miterlimit:10;}
	.st366{fill:#222222;}
	.st367{fill:url(#SVGID_52_);}
	.st368{fill:none;stroke:#FFFFFF;stroke-miterlimit:10;}
	.st369{fill:#CED0D7;}
	.st370{fill:url(#SVGID_53_);}
	.st371{fill:url(#SVGID_54_);}
	.st372{fill:url(#SVGID_55_);}
	.st373{opacity:0.4;fill:#3B3B3B;}
	.st374{fill:#DF58A0;}
	.st375{fill:url(#SVGID_56_);}
	.st376{fill:url(#SVGID_57_);}
	.st377{fill:url(#SVGID_58_);}
	.st378{fill:#565DE6;}
	.st379{fill:#452CBF;}
	.st380{fill:url(#SVGID_59_);}
	.st381{fill:url(#SVGID_60_);}
	.st382{fill:url(#SVGID_61_);}
	.st383{fill:url(#SVGID_62_);}
	.st384{fill:#E6E8EB;}
	.st385{fill:#3809A3;}
	.st386{fill:#7A41AA;}
	.st387{opacity:0.1;}
	.st388{fill:#D7D9DE;}
	.st389{fill:url(#SVGID_63_);}
	.st390{fill:url(#SVGID_64_);}
	.st391{fill:#9465BA;}
	.st392{fill:#9B9FB2;}
	.st393{fill:#AEB1C0;}
	.st394{fill:url(#SVGID_65_);}
	.st395{fill:url(#SVGID_66_);}
	.st396{fill:url(#SVGID_67_);}
	.st397{fill:url(#SVGID_68_);}
	.st398{fill:#5E38B5;}
	.st399{fill:#3B3B3B;}
	.st400{opacity:0.4;fill:#BFBFBF;}
	.st401{opacity:0.6;fill:#D4D4D4;}
	.st402{fill:#BFBFBF;}
	.st403{fill:#E3E3E3;}
	.st404{fill:url(#);}
	.st405{fill:#E8E8E8;}
	.st406{fill:#FF65A7;}
	.st407{fill:#D4D4D4;}
	.st408{fill:#FF9940;}
	.st409{fill:#F5F8F9;}
	.st410{fill:none;stroke:#D4D4D4;stroke-miterlimit:10;}
	.st411{fill:#FF7700;}
	.st412{fill:#FF8D29;}
	.st413{fill:#FFA940;}
	.st414{fill:#FFBC40;}
	.st415{fill:#353559;}
	.st416{fill:#29085E;}
	.st417{fill:#FEAA83;}
	.st418{fill:#594A4D;}
	.st419{opacity:0.3;fill:url(#);}
	.st420{fill:#001D3B;}
	.st421{fill:#EDA828;}
	.st422{fill:none;}
	.st423{fill:none;stroke:#000000;stroke-width:6.4688;stroke-miterlimit:10;}
	.st424{fill:none;stroke:#000000;stroke-width:0.7178;stroke-miterlimit:10;}
	.st425{fill:none;stroke:#000000;stroke-width:0.5922;stroke-miterlimit:10;}
	.st426{clip-path:url(#SVGID_71_);fill:url(#SVGID_72_);}
	.st427{clip-path:url(#SVGID_75_);fill:url(#SVGID_76_);}
	.st428{clip-path:url(#SVGID_78_);}
	.st429{fill:url(#SVGID_79_);}
</style>
<g>
	<defs>
		<path id="SVGID_77_" d="M239.7,125.1c-0.9,1.6-2.2,2.9-3.9,3.8c-1.7,0.9-3.8,1.4-6.2,1.4h-7.3v-21.9h7.3c2.4,0,4.5,0.4,6.2,1.3
			c1.7,0.9,3,2.2,3.9,3.8c0.9,1.6,1.3,3.6,1.3,5.8C241,121.5,240.6,123.4,239.7,125.1z M235.3,125c1.4-1.4,2.1-3.3,2.1-5.7
			c0-2.5-0.7-4.4-2.1-5.7s-3.4-2-6-2h-3.5v15.6h3.5C231.9,127.1,233.9,126.4,235.3,125z M260.4,122.4h-13.1c0.1,1.8,0.5,3.1,1.5,3.9
			c0.9,0.8,2,1.3,3.4,1.3c1.2,0,2.2-0.3,3-0.9c0.8-0.6,1.3-1.4,1.5-2.4h3.8c-0.2,1.2-0.7,2.3-1.4,3.2c-0.7,0.9-1.7,1.7-2.8,2.2
			c-1.2,0.5-2.4,0.8-3.9,0.8c-1.7,0-3.1-0.4-4.4-1.1c-1.3-0.7-2.3-1.7-3-3c-0.7-1.3-1.1-2.9-1.1-4.7c0-1.8,0.4-3.3,1.1-4.7
			c0.7-1.3,1.7-2.3,3-3c1.3-0.7,2.7-1.1,4.4-1.1c1.7,0,3.1,0.3,4.4,1c1.3,0.7,2.2,1.6,2.9,2.9c0.7,1.2,1,2.6,1,4
			C260.5,121.5,260.4,122,260.4,122.4z M256.3,118c-0.4-0.8-1-1.3-1.7-1.7c-0.7-0.4-1.5-0.5-2.4-0.5c-1.4,0-2.5,0.4-3.5,1.3
			c-0.9,0.8-1.4,2.1-1.5,3.8h9.7C257,119.7,256.8,118.8,256.3,118z M270.9,126.6l4.8-13.4h3.8l-6.5,17.1h-4.3l-6.5-17.1h3.8
			L270.9,126.6z M297.9,122.4h-13.1c0.1,1.8,0.5,3.1,1.5,3.9c0.9,0.8,2,1.3,3.4,1.3c1.2,0,2.2-0.3,3-0.9c0.8-0.6,1.3-1.4,1.5-2.4
			h3.8c-0.2,1.2-0.7,2.3-1.4,3.2c-0.7,0.9-1.7,1.7-2.8,2.2c-1.2,0.5-2.4,0.8-3.9,0.8c-1.7,0-3.1-0.4-4.4-1.1c-1.3-0.7-2.3-1.7-3-3
			c-0.7-1.3-1.1-2.9-1.1-4.7c0-1.8,0.4-3.3,1.1-4.7c0.7-1.3,1.7-2.3,3-3c1.3-0.7,2.7-1.1,4.4-1.1c1.7,0,3.1,0.3,4.4,1
			c1.3,0.7,2.2,1.6,2.9,2.9c0.7,1.2,1,2.6,1,4C298,121.5,297.9,122,297.9,122.4z M293.8,118c-0.4-0.8-1-1.3-1.7-1.7
			c-0.7-0.4-1.5-0.5-2.4-0.5c-1.4,0-2.5,0.4-3.5,1.3c-0.9,0.8-1.4,2.1-1.5,3.8h9.7C294.5,119.7,294.3,118.8,293.8,118z M304.9,107.3
			v22.9h-3.5v-22.9H304.9z M321.5,114c1.3,0.7,2.4,1.7,3.1,3c0.7,1.3,1.1,2.9,1.1,4.7c0,1.8-0.4,3.4-1.1,4.7c-0.7,1.3-1.8,2.3-3.1,3
			c-1.3,0.7-2.8,1.1-4.5,1.1c-1.7,0-3.1-0.4-4.4-1.1c-1.3-0.7-2.3-1.7-3.1-3.1c-0.8-1.3-1.1-2.9-1.1-4.7s0.4-3.3,1.1-4.7
			c0.8-1.3,1.8-2.3,3.1-3c1.3-0.7,2.8-1.1,4.4-1.1C318.7,113,320.2,113.3,321.5,114z M314.5,116.7c-0.8,0.4-1.4,1-1.8,1.9
			s-0.7,1.9-0.7,3.1c0,1.3,0.2,2.3,0.7,3.2s1.1,1.5,1.8,1.9c0.8,0.4,1.6,0.6,2.5,0.6c0.9,0,1.7-0.2,2.5-0.6c0.8-0.4,1.4-1,1.8-1.9
			s0.7-1.9,0.7-3.2c0-1.2-0.2-2.3-0.7-3.1s-1.1-1.5-1.8-1.9c-0.8-0.4-1.6-0.6-2.5-0.6C316.1,116,315.3,116.2,314.5,116.7z
			 M342.9,114c1.2,0.7,2.1,1.7,2.7,3c0.7,1.3,1,2.9,1,4.7c0,1.8-0.3,3.4-1,4.7c-0.7,1.3-1.6,2.3-2.7,3c-1.2,0.7-2.5,1.1-4,1.1
			c-1.5,0-2.9-0.4-4-1.1s-1.9-1.8-2.3-3v12.1h-3.5v-25.2h3.5v4c0.4-1.3,1.2-2.3,2.3-3c1.1-0.8,2.4-1.1,4-1.1
			C340.4,113,341.7,113.3,342.9,114z M335.2,116.8c-0.8,0.5-1.4,1.1-1.9,2c-0.5,0.9-0.7,1.8-0.7,3c0,1.1,0.2,2.1,0.7,3
			c0.5,0.8,1.1,1.5,1.9,2s1.7,0.7,2.7,0.7c1.6,0,2.8-0.5,3.8-1.5c1-1,1.4-2.4,1.4-4.1c0-1.7-0.5-3.1-1.4-4.1s-2.2-1.5-3.8-1.5
			C336.8,116.1,335.9,116.3,335.2,116.8z M365.8,122.4h-13.1c0.1,1.8,0.5,3.1,1.5,3.9c0.9,0.8,2,1.3,3.4,1.3c1.2,0,2.2-0.3,3-0.9
			c0.8-0.6,1.3-1.4,1.5-2.4h3.8c-0.2,1.2-0.7,2.3-1.4,3.2c-0.7,0.9-1.7,1.7-2.8,2.2c-1.2,0.5-2.4,0.8-3.9,0.8
			c-1.7,0-3.1-0.4-4.4-1.1c-1.3-0.7-2.3-1.7-3-3c-0.7-1.3-1.1-2.9-1.1-4.7c0-1.8,0.4-3.3,1.1-4.7c0.7-1.3,1.7-2.3,3-3
			c1.3-0.7,2.7-1.1,4.4-1.1c1.7,0,3.1,0.3,4.4,1c1.3,0.7,2.2,1.6,2.9,2.9c0.7,1.2,1,2.6,1,4C365.9,121.5,365.9,122,365.8,122.4z
			 M361.8,118c-0.4-0.8-1-1.3-1.7-1.7c-0.7-0.4-1.5-0.5-2.4-0.5c-1.4,0-2.5,0.4-3.5,1.3c-0.9,0.8-1.4,2.1-1.5,3.8h9.7
			C362.4,119.7,362.2,118.8,361.8,118z M375.3,113.9c1.1-0.7,2.3-1,3.7-1v3.8H378c-1.6,0-2.8,0.4-3.7,1.1c-0.9,0.8-1.4,2-1.4,3.7
			v8.6h-3.5v-17.1h3.5v3.3C373.4,115.4,374.3,114.5,375.3,113.9z M239.7,162.1c-0.9,1.6-2.2,2.9-3.9,3.8c-1.7,0.9-3.8,1.4-6.2,1.4
			h-7.3v-21.9h7.3c2.4,0,4.5,0.4,6.2,1.3c1.7,0.9,3,2.2,3.9,3.8c0.9,1.6,1.3,3.6,1.3,5.8C241,158.5,240.6,160.4,239.7,162.1z
			 M235.3,162c1.4-1.4,2.1-3.3,2.1-5.7c0-2.5-0.7-4.4-2.1-5.7s-3.4-2-6-2h-3.5v15.6h3.5C231.9,164.1,233.9,163.4,235.3,162z
			 M260.4,159.4h-13.1c0.1,1.8,0.5,3.1,1.5,3.9c0.9,0.8,2,1.3,3.4,1.3c1.2,0,2.2-0.3,3-0.9c0.8-0.6,1.3-1.4,1.5-2.4h3.8
			c-0.2,1.2-0.7,2.3-1.4,3.2c-0.7,0.9-1.7,1.7-2.8,2.2c-1.2,0.5-2.4,0.8-3.9,0.8c-1.7,0-3.1-0.4-4.4-1.1c-1.3-0.7-2.3-1.7-3-3
			c-0.7-1.3-1.1-2.9-1.1-4.7c0-1.8,0.4-3.3,1.1-4.7c0.7-1.3,1.7-2.3,3-3c1.3-0.7,2.7-1.1,4.4-1.1c1.7,0,3.1,0.3,4.4,1
			c1.3,0.7,2.2,1.6,2.9,2.9c0.7,1.2,1,2.6,1,4C260.5,158.5,260.4,159,260.4,159.4z M256.3,155c-0.4-0.8-1-1.3-1.7-1.7
			c-0.7-0.4-1.5-0.5-2.4-0.5c-1.4,0-2.5,0.4-3.5,1.3c-0.9,0.8-1.4,2.1-1.5,3.8h9.7C257,156.7,256.8,155.8,256.3,155z M274.3,151.5
			c1.2,1,1.9,2.4,2.2,4.1h-3.3c-0.1-0.9-0.5-1.7-1.2-2.2c-0.7-0.6-1.5-0.9-2.6-0.9c-0.9,0-1.6,0.2-2.1,0.6c-0.5,0.4-0.7,1-0.7,1.7
			c0,0.5,0.2,1,0.5,1.3c0.4,0.3,0.8,0.6,1.3,0.8c0.5,0.2,1.3,0.4,2.2,0.6c1.3,0.3,2.3,0.6,3.1,0.9c0.8,0.3,1.5,0.8,2,1.5
			c0.6,0.7,0.9,1.6,0.9,2.7c0,1.4-0.5,2.6-1.6,3.5c-1.1,0.9-2.5,1.3-4.4,1.3c-2.1,0-3.8-0.5-5.2-1.5c-1.3-1-2.1-2.4-2.4-4.2h3.4
			c0.1,0.9,0.5,1.7,1.2,2.3c0.7,0.6,1.7,0.9,2.9,0.9c0.8,0,1.5-0.2,2-0.7c0.5-0.4,0.7-1,0.7-1.7c0-0.6-0.2-1.1-0.6-1.4
			c-0.4-0.4-0.8-0.6-1.4-0.8c-0.6-0.2-1.3-0.4-2.3-0.6c-1.2-0.3-2.2-0.6-3-0.9c-0.8-0.3-1.4-0.8-2-1.4c-0.5-0.7-0.8-1.5-0.8-2.7
			c0-1.4,0.5-2.6,1.6-3.5c1.1-0.9,2.6-1.3,4.5-1.3C271.5,150,273.1,150.5,274.3,151.5z M280.4,143.7c0.4-0.4,1-0.6,1.6-0.6
			c0.7,0,1.2,0.2,1.7,0.6c0.4,0.4,0.6,0.9,0.6,1.5s-0.2,1.1-0.6,1.5s-1,0.6-1.7,0.6c-0.7,0-1.2-0.2-1.6-0.6s-0.6-0.9-0.6-1.5
			S280,144.1,280.4,143.7z M283.8,150.2v17.1h-3.5v-17.1H283.8z M302.4,151.8c1.2,1.3,1.8,3.1,1.8,5.5v10h-3.5v-9.6
			c0-1.5-0.4-2.7-1.2-3.5c-0.8-0.8-1.9-1.3-3.2-1.3c-1.4,0-2.5,0.4-3.4,1.3c-0.8,0.9-1.3,2.2-1.3,4v9.1h-3.5v-17.1h3.5v3.8
			c0.5-1.3,1.2-2.3,2.3-3c1.1-0.7,2.3-1.1,3.7-1.1C299.6,149.9,301.2,150.5,302.4,151.8z M319.1,151.1c1.1,0.8,1.9,1.8,2.3,3v-4h3.5
			v17.3c0,1.6-0.3,3-1,4.2c-0.7,1.2-1.6,2.2-2.8,2.9c-1.2,0.7-2.7,1.1-4.3,1.1c-2.4,0-4.3-0.6-5.8-1.7c-1.5-1.1-2.4-2.7-2.8-4.6h3.5
			c0.3,1,0.8,1.8,1.7,2.4c0.8,0.6,1.9,0.9,3.2,0.9c1.4,0,2.6-0.4,3.5-1.3s1.4-2.1,1.4-3.8v-4.2c-0.5,1.3-1.2,2.3-2.3,3
			c-1.1,0.8-2.4,1.1-4,1.1c-1.5,0-2.8-0.4-4-1.1c-1.2-0.7-2.1-1.7-2.7-3c-0.7-1.3-1-2.9-1-4.7c0-1.8,0.3-3.3,1-4.7
			c0.7-1.3,1.6-2.3,2.7-3c1.2-0.7,2.5-1.1,4-1.1C316.7,150,318,150.3,319.1,151.1z M312.5,154.6c-0.9,1-1.4,2.4-1.4,4.1
			s0.5,3.1,1.4,4.1c0.9,1,2.2,1.5,3.8,1.5c1,0,1.9-0.2,2.7-0.7c0.8-0.5,1.4-1.1,1.9-2c0.5-0.8,0.7-1.8,0.7-3c0-1.1-0.2-2.1-0.7-3
			c-0.5-0.9-1.1-1.5-1.9-2c-0.8-0.5-1.7-0.7-2.7-0.7C314.7,153.1,313.4,153.6,312.5,154.6z M343.6,151.8c1.2,1.3,1.8,3.1,1.8,5.5v10
			h-3.5v-9.6c0-1.5-0.4-2.7-1.2-3.5c-0.8-0.8-1.9-1.3-3.2-1.3c-1.4,0-2.5,0.4-3.4,1.3c-0.8,0.9-1.3,2.2-1.3,4v9.1h-3.5v-17.1h3.5
			v3.8c0.5-1.3,1.2-2.3,2.3-3c1.1-0.7,2.3-1.1,3.7-1.1C340.8,149.9,342.4,150.5,343.6,151.8z M365.2,159.4h-13.1
			c0.1,1.8,0.5,3.1,1.5,3.9c0.9,0.8,2,1.3,3.4,1.3c1.2,0,2.2-0.3,3-0.9c0.8-0.6,1.3-1.4,1.5-2.4h3.8c-0.2,1.2-0.7,2.3-1.4,3.2
			c-0.7,0.9-1.7,1.7-2.8,2.2c-1.2,0.5-2.4,0.8-3.9,0.8c-1.7,0-3.1-0.4-4.4-1.1c-1.3-0.7-2.3-1.7-3-3c-0.7-1.3-1.1-2.9-1.1-4.7
			c0-1.8,0.4-3.3,1.1-4.7c0.7-1.3,1.7-2.3,3-3c1.3-0.7,2.7-1.1,4.4-1.1c1.7,0,3.1,0.3,4.4,1c1.3,0.7,2.2,1.6,2.9,2.9
			c0.7,1.2,1,2.6,1,4C365.3,158.5,365.3,159,365.2,159.4z M361.2,155c-0.4-0.8-1-1.3-1.7-1.7c-0.7-0.4-1.5-0.5-2.4-0.5
			c-1.4,0-2.5,0.4-3.5,1.3c-0.9,0.8-1.4,2.1-1.5,3.8h9.7C361.8,156.7,361.6,155.8,361.2,155z M374.8,150.9c1.1-0.7,2.3-1,3.7-1v3.8
			h-1.1c-1.6,0-2.8,0.4-3.7,1.1c-0.9,0.8-1.4,2-1.4,3.7v8.6h-3.5v-17.1h3.5v3.3C372.9,152.4,373.7,151.5,374.8,150.9z M238.7,184.2
			c1.8,1.4,3,3.2,3.6,5.5h-3.8c-0.5-1.3-1.3-2.4-2.5-3.1c-1.1-0.8-2.5-1.2-4.1-1.2c-1.3,0-2.5,0.3-3.5,1c-1,0.6-1.8,1.6-2.4,2.7
			s-0.9,2.6-0.9,4.2c0,1.6,0.3,3,0.9,4.1c0.6,1.2,1.4,2.1,2.4,2.7s2.2,1,3.5,1c1.6,0,3-0.4,4.1-1.2c1.1-0.8,1.9-1.8,2.5-3.1h3.8
			c-0.6,2.3-1.8,4.2-3.6,5.5c-1.8,1.4-4,2-6.7,2c-2.1,0-3.9-0.5-5.5-1.4c-1.6-0.9-2.8-2.3-3.7-3.9c-0.9-1.7-1.3-3.6-1.3-5.8
			s0.4-4.1,1.3-5.8c0.9-1.7,2.1-3,3.7-4c1.6-1,3.4-1.4,5.5-1.4C234.7,182.2,236.9,182.8,238.7,184.2z M251.9,187.9
			c1.1-0.7,2.3-1,3.7-1v3.8h-1.1c-1.6,0-2.8,0.4-3.7,1.1c-0.9,0.8-1.4,2-1.4,3.7v8.6h-3.5v-17.1h3.5v3.3
			C250,189.4,250.8,188.5,251.9,187.9z M274,196.4h-13.1c0.1,1.8,0.5,3.1,1.5,3.9c0.9,0.8,2,1.3,3.4,1.3c1.2,0,2.2-0.3,3-0.9
			c0.8-0.6,1.3-1.4,1.5-2.4h3.8c-0.2,1.2-0.7,2.3-1.4,3.2c-0.7,0.9-1.7,1.7-2.8,2.2c-1.2,0.5-2.4,0.8-3.9,0.8
			c-1.7,0-3.1-0.4-4.4-1.1c-1.3-0.7-2.3-1.7-3-3c-0.7-1.3-1.1-2.9-1.1-4.7c0-1.8,0.4-3.3,1.1-4.7c0.7-1.3,1.7-2.3,3-3
			c1.3-0.7,2.7-1.1,4.4-1.1c1.7,0,3.1,0.3,4.4,1c1.3,0.7,2.2,1.6,2.9,2.9c0.7,1.2,1,2.6,1,4C274.1,195.5,274,196,274,196.4z
			 M269.9,192c-0.4-0.8-1-1.3-1.7-1.7c-0.7-0.4-1.5-0.5-2.4-0.5c-1.4,0-2.5,0.4-3.5,1.3c-0.9,0.8-1.4,2.1-1.5,3.8h9.7
			C270.6,193.7,270.4,192.8,269.9,192z M288.3,188.1c1.1,0.8,1.9,1.8,2.3,3v-4h3.5v17.1h-3.5v-4c-0.5,1.3-1.2,2.3-2.3,3
			c-1.1,0.8-2.4,1.1-4,1.1c-1.5,0-2.8-0.4-4-1.1c-1.2-0.7-2.1-1.7-2.7-3c-0.7-1.3-1-2.9-1-4.7c0-1.8,0.3-3.3,1-4.7
			c0.7-1.3,1.6-2.3,2.7-3c1.2-0.7,2.5-1.1,4-1.1C285.9,187,287.2,187.3,288.3,188.1z M281.7,191.6c-0.9,1-1.4,2.4-1.4,4.1
			s0.5,3.1,1.4,4.1c0.9,1,2.2,1.5,3.8,1.5c1,0,1.9-0.2,2.7-0.7c0.8-0.5,1.4-1.1,1.9-2c0.5-0.8,0.7-1.8,0.7-3c0-1.1-0.2-2.1-0.7-3
			c-0.5-0.9-1.1-1.5-1.9-2c-0.8-0.5-1.7-0.7-2.7-0.7C283.9,190.1,282.6,190.6,281.7,191.6z M307,201.2v3.1h-2.2
			c-1.8,0-3.2-0.4-4.1-1.3c-0.9-0.9-1.4-2.3-1.4-4.4v-8.4h-2.4v-3h2.4v-4.2h3.6v4.2h4.1v3h-4.1v8.4c0,1,0.2,1.6,0.5,2s1,0.6,1.9,0.6
			H307z M310.4,180.7c0.4-0.4,1-0.6,1.6-0.6c0.7,0,1.2,0.2,1.7,0.6c0.4,0.4,0.6,0.9,0.6,1.5s-0.2,1.1-0.6,1.5s-1,0.6-1.7,0.6
			c-0.7,0-1.2-0.2-1.6-0.6s-0.6-0.9-0.6-1.5S310,181.1,310.4,180.7z M313.9,187.2v17.1h-3.5v-17.1H313.9z M325.1,200.6l4.8-13.4h3.8
			l-6.5,17.1H323l-6.5-17.1h3.8L325.1,200.6z M352.1,196.4H339c0.1,1.8,0.5,3.1,1.5,3.9c0.9,0.8,2,1.3,3.4,1.3c1.2,0,2.2-0.3,3-0.9
			c0.8-0.6,1.3-1.4,1.5-2.4h3.8c-0.2,1.2-0.7,2.3-1.4,3.2c-0.7,0.9-1.7,1.7-2.8,2.2c-1.2,0.5-2.4,0.8-3.9,0.8
			c-1.7,0-3.1-0.4-4.4-1.1c-1.3-0.7-2.3-1.7-3-3c-0.7-1.3-1.1-2.9-1.1-4.7c0-1.8,0.4-3.3,1.1-4.7c0.7-1.3,1.7-2.3,3-3
			c1.3-0.7,2.7-1.1,4.4-1.1c1.7,0,3.1,0.3,4.4,1c1.3,0.7,2.2,1.6,2.9,2.9c0.7,1.2,1,2.6,1,4C352.2,195.5,352.2,196,352.1,196.4z
			 M348.1,192c-0.4-0.8-1-1.3-1.7-1.7c-0.7-0.4-1.5-0.5-2.4-0.5c-1.4,0-2.5,0.4-3.5,1.3c-0.9,0.8-1.4,2.1-1.5,3.8h9.7
			C348.7,193.7,348.5,192.8,348.1,192z M63.7,103v79.5c0,8.8-2.5,15.8-7.4,20.9c-4.9,5.1-11.9,7.7-20.8,7.7
			c-9.6,0-17.1-2.9-22.6-8.6c-5.5-5.7-8.2-13.7-8.2-24.1h13.6c0,6.2,1.4,11.1,4.1,14.6c2.7,3.6,6.8,5.4,12.4,5.4
			c5.3,0,9.2-1.5,11.6-4.6c2.4-3,3.6-6.8,3.6-11.4V103H63.7z M180.7,103v108h-13.6v-86.2L133.9,211h-12.1l-33.3-85.9V211H74.8V103
			h16.3l36.9,90.7l36.3-90.7H180.7z M200.5,149.1c-1.5-2.8-2.3-6.3-2.3-10.4c0-2.2,0.3-5.4,0.8-9.5c0.4-2.7,0.6-5,0.8-6.7
			c0.2-1.7,0.2-3.8,0.2-6c0-6.1-1-11.5-3-16.2c-2-4.7-4.3-8-6.9-9.9v-0.9h6.9c1.2,1,2.6,2.5,4.1,4.7c1.5,2.1,2.9,5.1,4,8.8
			c1.2,3.7,1.8,8.2,1.8,13.3c0,2.1-0.1,4.2-0.3,6.3c-0.2,2.1-0.5,4.1-0.7,5.9c-0.6,4.1-0.9,7.3-0.9,9.8c0,7.9,2.8,12.7,8.5,14.3v4.7
			c-5.7,1.5-8.5,6.3-8.5,14.3c0,2.4,0.3,5.7,0.9,9.8c0.3,1.9,0.5,3.8,0.7,5.9c0.2,2.1,0.3,4.2,0.3,6.3c0,5.1-0.6,9.5-1.8,13.3
			c-1.2,3.7-2.5,6.7-4,8.8c-1.5,2.1-2.9,3.7-4.1,4.7H190v-0.9c2.6-1.9,4.9-5.2,6.9-9.9c2-4.7,3-10.1,3-16.2c0-2.3-0.1-4.3-0.2-6
			c-0.2-1.7-0.4-4-0.8-6.7c-0.5-4.1-0.8-7.3-0.8-9.5c0-4.1,0.8-7.5,2.3-10.4c1.5-2.8,3.9-4.7,6.9-5.6v-0.2
			C204.3,153.8,202,152,200.5,149.1z"/>
	</defs>
	<use xlink:href="#SVGID_77_"  style="overflow:visible;"/>
	<clipPath id="SVGID_1_">
		<use xlink:href="#SVGID_77_"  style="overflow:visible;"/>
	</clipPath>
	<rect x="3" y="-1" style="clip-path:url(#SVGID_1_);" width="383" height="322"/>
</g>
</svg>
