<?xml version="1.0" encoding="utf-8"?>
<!-- Generator: Adobe Illustrator 21.0.0, SVG Export Plug-In . SVG Version: 6.00 Build 0)  -->
<svg version="1.1" id="Layer_1" xmlns="http://www.w3.org/2000/svg" xmlns:xlink="http://www.w3.org/1999/xlink" x="0px" y="0px"
	 viewBox="0 0 511.3 511.3" style="enable-background:new 0 0 511.3 511.3;" xml:space="preserve">
<style type="text/css">
	.st0{fill:url(#SVGID_1_);stroke:url(#SVGID_2_);stroke-width:6;stroke-miterlimit:10;}
	.st1{fill:url(#SVGID_3_);}
</style>
<g>
	<g>
		<linearGradient id="SVGID_1_" gradientUnits="userSpaceOnUse" x1="66.0485" y1="256.63" x2="448.2091" y2="256.63">
			<stop  offset="0" style="stop-color:#0067CD"/>
			<stop  offset="1" style="stop-color:#4EBAF9"/>
		</linearGradient>
		<linearGradient id="SVGID_2_" gradientUnits="userSpaceOnUse" x1="63.0485" y1="256.63" x2="451.2091" y2="256.63">
			<stop  offset="0" style="stop-color:#0067CD"/>
			<stop  offset="1" style="stop-color:#4EBAF9"/>
		</linearGradient>
		<path class="st0" d="M445.9,136c-2-2-5.2-2.6-7.8-2l-13,4.6c7.8-9.1,13-18.9,16.3-27.9c1.3-3.2,0.6-5.8-1.3-7.8
			c-2-2-5.2-2.6-7.8-1.3c-18.1,7.8-33.8,14.3-46.7,18.1c0,0.6-0.6,0-1.3,0c-10.4-5.8-35.7-18.9-53.9-18.9c-46.1,0.6-83,39.6-83,87
			v2.6c-67.5-13-104.5-32.4-144.7-74.6l-6.5-6.5l-3.9,7.8c-22.1,42.2-6.5,80.4,18.9,106.4c-11.7-2-19.5-5.8-26.6-11.7
			c-2.6-2-5.8-2.6-9.1-0.6c-2.6,1.3-3.9,5.2-3.2,8.4c9.1,30.5,31.8,55.1,56.5,70.1c-11.7,0-21.5-1.3-31.2-7.8
			c-2.6-1.3-6.5-1.3-9.1,0.6c-2.6,2-3.9,5.2-2.6,8.4c11.7,33.1,34.4,50.6,70.7,55.1c-18.9,11-43.4,20.1-81.8,20.7
			c-3.9,0-7.2,2.6-8.4,5.8c-1.3,3.9,0,7.2,2.6,9.7c23.3,18.9,75.2,29.9,139.5,29.9c114.2,0,207.7-101.9,207.7-227.1v-2
			c14.3-7.2,25.9-20.7,31.8-39.6C448.5,141.2,447.8,138,445.9,136z M406.9,173l-3.9,1.3v11c0,118.2-87.6,214.2-194.7,214.2
			c-59.1,0-98.7-9.7-120-20.1c44.8-3.2,70.7-17.5,90.9-33.1l16.3-11.7h-19.5c-37,0-59.7-10.4-72.7-35c11.7,3.9,24,3.9,37.6,3.2
			c5.2-0.6,10.4-0.6,15.5-0.6l2-13c-24.7-7.2-53.9-29.2-68.1-59.1c13,5.8,27.3,7.2,40.2,7.2h20.1l-16.2-11.7
			c-13.6-9.7-53.9-44.2-34.4-93.5c41.6,40.8,81.2,59.7,152.5,72.7l7.8,1.3V188c0-40.2,31.2-73.4,70.1-74c14.9-0.6,39.6,13,46.7,16.9
			c3.9,2,7.8,2.6,11.7,1.3c9.7-3.2,21.5-7.8,34.4-13c-5.8,9.7-13.6,18.9-24,27.3c-2.6,2-3.2,5.8-2,9.1s5.2,4.6,8.4,3.2l25.3-8.4
			C426.4,158.7,419.2,168.5,406.9,173z"/>
	</g>
</g>
<linearGradient id="SVGID_3_" gradientUnits="userSpaceOnUse" x1="-0.7" y1="255.3" x2="511.3" y2="255.3">
	<stop  offset="0" style="stop-color:#0067CD"/>
	<stop  offset="1" style="stop-color:#4EBAF9"/>
</linearGradient>
<path class="st1" d="M451.3-0.7h-392c-33.1,0-60,26.9-60,60v392c0,33.1,26.9,60,60,60h392c33.1,0,60-26.9,60-60v-392
	C511.3,26.2,484.4-0.7,451.3-0.7z M486.3,464.9c0,11.8-9.6,21.4-21.4,21.4H45.7c-11.8,0-21.4-9.6-21.4-21.4V45.7
	c0-11.8,9.6-21.4,21.4-21.4h419.2c11.8,0,21.4,9.6,21.4,21.4V464.9z"/>
</svg>
